# xmcd CD database file
#
# Track frame offsets:
#	150
#	12672
#	38560
#	59255
#	135260
#	142612
#	160777
#	179540
#	187707
#
# Disc length: 2960 seconds
#
# Revision: 0
# Processed by: cddbd v1.5.2PL0 Copyright (c) Steve Scherf et al.
# Submitted via: CDex 1.70beta3
#
DISCID=660b8e09
DTITLE=Gregor Theelen - Shamanic Tree of Worlds
DYEAR=1998
DGENRE=New Age
TTITLE0=Baby Willow
TTITLE1=Oaks of Justice
TTITLE2=Bowing Birches
TTITLE3=Shamanic Tree of Worlds
TTITLE4=Cherry Blossom
TTITLE5=Spring Blanket
TTITLE6=Roots Unfold
TTITLE7=Marco's Joy
TTITLE8=Forest Pricess
EXTD=YEAR: 1998
EXTT0=
EXTT1=
EXTT2=
EXTT3=
EXTT4=
EXTT5=
EXTT6=
EXTT7=
EXTT8=
PLAYORDER=
